<svg xmlns="http://www.w3.org/2000/svg" width="228.57" height="386.484" viewBox="0 0 228.57 386.484">
  <g id="Group_212" data-name="Group 212" transform="translate(-434.896 -307.85)">
    <g id="Group_210" data-name="Group 210" transform="translate(434.896 307.85)">
      <path id="Path_1938" data-name="Path 1938" d="M-15446.937-3127.76l-154.371.021v-23.274l168.484-149.947-.043-115.843-181.955.081v115.647l77.328,66.61,5.725,4.778-17.629,15.7-88.707-76.415v-149.593l228.512-.1.059,149.579-156.756,139.507h85.143l-32.711-30.8,16.979-16.043.725.731,48.857,46Z" transform="translate(15638.105 3476.96)" fill="#fff"/>
      <path id="Path_1934" data-name="Path 1934" d="M-15468.315-3276.718h-153.859V-3300h153.859Z" transform="translate(15659.531 3625.951)" fill="#fff"/>
      <path id="Path_1938-2" data-name="Path 1938" d="M-15468.315-3276.718h-153.859V-3300h153.859Z" transform="translate(15659.531 3663.203)" fill="#fff"/>
      <path id="Path_1939" data-name="Path 1939" d="M-15468.315-3276.718h-153.859V-3300h153.859Z" transform="translate(15659.531 3300)" fill="#fff"/>
    </g>
    <g id="Group_211" data-name="Group 211" transform="translate(472.252 382.353)">
      <path id="Path_1940" data-name="Path 1940" d="M-15468.315-3276.718h-153.859V-3300h153.859Z" transform="translate(15622.175 3300)" fill="#fff"/>
      <path id="Path_1941" data-name="Path 1941" d="M-15535.044-3276.718h-87.129V-3300h87.129Z" transform="translate(15688.904 3337.252)" fill="#fff"/>
      <path id="Path_1942" data-name="Path 1942" d="M78.089,23.282H0V0H78.089Z" transform="translate(45.105 19.295) rotate(90)" fill="#fff"/>
      <path id="Path_1943" data-name="Path 1943" d="M57.811,23.282H0V0H57.811Z" transform="translate(135.906 48.887) rotate(90)" fill="#fff"/>
      <path id="Path_1944" data-name="Path 1944" d="M48.891,70.549,0,15.515,17.359,0,64.45,52.685Z" transform="translate(135.777 89.674) rotate(90)" fill="#fff"/>
      <path id="Path_1945" data-name="Path 1945" d="M17.328,52.66,0,37.113l29.779-33.2L33.373,0,49.081,17.263Z" transform="translate(74.472 80.15) rotate(90)" fill="#fff"/>
    </g>
  </g>
</svg>
